<?xml version="1.0" encoding="us-ascii" standalone="no"?><svg xmlns="http://www.w3.org/2000/svg" xmlns:xlink="http://www.w3.org/1999/xlink" contentStyleType="text/css" height="814px" preserveAspectRatio="none" style="width:578px;height:814px;background:#FFFFFF;" version="1.1" viewBox="0 0 578 814" width="578px" zoomAndPan="magnify"><defs/><g><!--cluster JASMIN--><g id="cluster_JASMIN"><rect fill="#FFFFFF" height="585.39" rx="2.5" ry="2.5" style="stroke:#181818;stroke-width:1.0;" width="535" x="37" y="223.49"/><path d="M100,223.49 L100,232.9783 L90,242.9783 L37,242.9783 " fill="none" style="stroke:#181818;stroke-width:1.0;"/><text fill="#000000" font-family="sans-serif" font-size="14" font-weight="bold" lengthAdjust="spacing" textLength="53" x="40" y="238.0252">JASMIN</text></g><!--cluster External Cloud--><g id="cluster_External Cloud"><rect fill="#FFFFFF" height="324.41" rx="2.5" ry="2.5" style="stroke:#181818;stroke-width:1.0;" width="471" x="69" y="274.49"/><path d="M184,274.49 L184,283.9783 L174,293.9783 L69,293.9783 " fill="none" style="stroke:#181818;stroke-width:1.0;"/><text fill="#000000" font-family="sans-serif" font-size="14" font-weight="bold" lengthAdjust="spacing" textLength="105" x="72" y="289.0252">External Cloud</text></g><!--cluster vm1--><g id="cluster_vm1"><rect fill="#F5FFFA" height="240.95" rx="2.5" ry="2.5" style="stroke:#181818;stroke-width:1.0;" width="154" x="101" y="325.95"/><rect fill="#F5FFFA" height="10" style="stroke:#181818;stroke-width:1.0;" width="15" x="235" y="330.95"/><rect fill="#F5FFFA" height="2" style="stroke:#181818;stroke-width:1.0;" width="4" x="233" y="332.95"/><rect fill="#F5FFFA" height="2" style="stroke:#181818;stroke-width:1.0;" width="4" x="233" y="336.95"/><text fill="#000000" font-family="sans-serif" font-size="14" font-weight="bold" lengthAdjust="spacing" textLength="31" x="162.5" y="352.4852">vm1</text></g><!--cluster vm2--><g id="cluster_vm2"><rect fill="#F5FFFA" height="97.48" rx="2.5" ry="2.5" style="stroke:#181818;stroke-width:1.0;" width="88" x="279" y="469.42"/><rect fill="#F5FFFA" height="10" style="stroke:#181818;stroke-width:1.0;" width="15" x="347" y="474.42"/><rect fill="#F5FFFA" height="2" style="stroke:#181818;stroke-width:1.0;" width="4" x="345" y="476.42"/><rect fill="#F5FFFA" height="2" style="stroke:#181818;stroke-width:1.0;" width="4" x="345" y="480.42"/><text fill="#000000" font-family="sans-serif" font-size="14" font-weight="bold" lengthAdjust="spacing" textLength="31" x="307.5" y="495.9552">vm2</text></g><!--cluster vm3--><g id="cluster_vm3"><rect fill="#F5FFFA" height="97.48" rx="2.5" ry="2.5" style="stroke:#181818;stroke-width:1.0;" width="88" x="391" y="469.42"/><rect fill="#F5FFFA" height="10" style="stroke:#181818;stroke-width:1.0;" width="15" x="459" y="474.42"/><rect fill="#F5FFFA" height="2" style="stroke:#181818;stroke-width:1.0;" width="4" x="457" y="476.42"/><rect fill="#F5FFFA" height="2" style="stroke:#181818;stroke-width:1.0;" width="4" x="457" y="480.42"/><text fill="#000000" font-family="sans-serif" font-size="14" font-weight="bold" lengthAdjust="spacing" textLength="31" x="419.5" y="495.9552">vm3</text></g><!--cluster Internal Cloud--><g id="cluster_Internal Cloud"><rect fill="#FFFFFF" height="113.98" rx="2.5" ry="2.5" style="stroke:#181818;stroke-width:1.0;" width="237" x="270" y="670.9"/><path d="M383,670.9 L383,680.3883 L373,690.3883 L270,690.3883 " fill="none" style="stroke:#181818;stroke-width:1.0;"/><text fill="#000000" font-family="sans-serif" font-size="14" font-weight="bold" lengthAdjust="spacing" textLength="103" x="273" y="685.4352">Internal Cloud</text></g><!--cluster User Application\n--><g id="cluster_User Application\n"><rect fill="none" height="129.49" rx="2.5" ry="2.5" style="stroke:#181818;stroke-width:1.0;" width="387" x="7" y="7"/><text fill="#000000" font-family="sans-serif" font-size="14" font-weight="bold" lengthAdjust="spacing" textLength="119" x="141" y="22.5352">User Application</text><text fill="#000000" font-family="sans-serif" font-size="14" font-weight="bold" lengthAdjust="spacing" textLength="5" x="198" y="39.0234">&#160;</text></g><!--entity bnote--><g id="elem_bnote"><rect fill="#F5F5DC" height="104.9297" rx="2.5" ry="2.5" style="stroke:#181818;stroke-width:0.5;stroke-dasharray:1.0,1.0;" width="166" x="84" y="684.93"/><text fill="#000000" font-family="sans-serif" font-size="14" lengthAdjust="spacing" textLength="146" x="94" y="701.4652">maximum theoretical</text><text fill="#000000" font-family="sans-serif" font-size="14" lengthAdjust="spacing" textLength="135" x="97.5" y="717.9534">bandwidth between</text><text fill="#000000" font-family="sans-serif" font-size="14" lengthAdjust="spacing" textLength="129" x="100.5" y="734.4417">external cloud and</text><text fill="#000000" font-family="sans-serif" font-size="14" lengthAdjust="spacing" textLength="99" x="117.5" y="750.93">internal cloud:</text><text fill="#000000" font-family="sans-serif" font-size="14" lengthAdjust="spacing" textLength="111" x="111.5" y="767.4183">ON: 2x25 Gbit/s</text><text fill="#000000" font-family="sans-serif" font-size="14" lengthAdjust="spacing" textLength="119" x="107.5" y="783.9066">NN: 2x100 Gbit/s</text></g><!--entity anote--><g id="elem_anote"><rect fill="#F5F5DC" height="104.9297" rx="2.5" ry="2.5" style="stroke:#181818;stroke-width:0.5;stroke-dasharray:1.0,1.0;" width="225" x="271.5" y="317.49"/><text fill="#000000" font-family="sans-serif" font-size="14" lengthAdjust="spacing" textLength="57" x="355.5" y="334.0252">each VM</text><text fill="#000000" font-family="sans-serif" font-size="14" lengthAdjust="spacing" textLength="199" x="284.5" y="350.5134">receives posted JSON request</text><text fill="#000000" font-family="sans-serif" font-size="14" lengthAdjust="spacing" textLength="205" x="281.5" y="367.0017">returns reduced JSON payload</text><text fill="#000000" font-family="sans-serif" font-size="14" lengthAdjust="spacing" textLength="24" x="370" y="383.49">---</text><text fill="#000000" font-family="sans-serif" font-size="14" lengthAdjust="spacing" textLength="114" x="325" y="399.9783">ha configuration</text><text fill="#000000" font-family="sans-serif" font-size="14" lengthAdjust="spacing" textLength="190" x="289" y="416.4666">(using vm2,vm3 is optional)</text></g><!--entity pip--><g id="elem_pip"><ellipse cx="227" cy="369.95" fill="#F1F1F1" rx="8" ry="8" style="stroke:#181818;stroke-width:0.5;"/><text fill="#000000" font-family="sans-serif" font-size="14" lengthAdjust="spacing" textLength="58" x="158" y="400.4852">public IP</text></g><!--entity reductionist--><g id="elem_reductionist"><rect fill="#F5FFFA" height="46.4883" rx="2.5" ry="2.5" style="stroke:#181818;stroke-width:0.5;" width="122" x="117" y="504.42"/><rect fill="#F5FFFA" height="10" style="stroke:#181818;stroke-width:0.5;" width="15" x="219" y="509.42"/><rect fill="#F5FFFA" height="2" style="stroke:#181818;stroke-width:0.5;" width="4" x="217" y="511.42"/><rect fill="#F5FFFA" height="2" style="stroke:#181818;stroke-width:0.5;" width="4" x="217" y="515.42"/><text fill="#000000" font-family="sans-serif" font-size="14" lengthAdjust="spacing" textLength="82" x="132" y="537.9552">reductionist</text></g><!--entity r2--><g id="elem_r2"><rect fill="#F5FFFA" height="46.4883" rx="2.5" ry="2.5" style="stroke:#181818;stroke-width:0.5;" width="55" x="295.5" y="504.42"/><rect fill="#F5FFFA" height="10" style="stroke:#181818;stroke-width:0.5;" width="15" x="330.5" y="509.42"/><rect fill="#F5FFFA" height="2" style="stroke:#181818;stroke-width:0.5;" width="4" x="328.5" y="511.42"/><rect fill="#F5FFFA" height="2" style="stroke:#181818;stroke-width:0.5;" width="4" x="328.5" y="515.42"/><text fill="#000000" font-family="sans-serif" font-size="14" lengthAdjust="spacing" textLength="15" x="310.5" y="537.9552">r2</text></g><!--entity r3--><g id="elem_r3"><rect fill="#F5FFFA" height="46.4883" rx="2.5" ry="2.5" style="stroke:#181818;stroke-width:0.5;" width="55" x="407.5" y="504.42"/><rect fill="#F5FFFA" height="10" style="stroke:#181818;stroke-width:0.5;" width="15" x="442.5" y="509.42"/><rect fill="#F5FFFA" height="2" style="stroke:#181818;stroke-width:0.5;" width="4" x="440.5" y="511.42"/><rect fill="#F5FFFA" height="2" style="stroke:#181818;stroke-width:0.5;" width="4" x="440.5" y="515.42"/><text fill="#000000" font-family="sans-serif" font-size="14" lengthAdjust="spacing" textLength="15" x="422.5" y="537.9552">r3</text></g><!--entity s3--><g id="elem_s3"><rect fill="#F5FFFA" height="62.9766" rx="2.5" ry="2.5" style="stroke:#181818;stroke-width:0.5;" width="97" x="285.5" y="705.9"/><rect fill="#F5FFFA" height="10" style="stroke:#181818;stroke-width:0.5;" width="15" x="362.5" y="710.9"/><rect fill="#F5FFFA" height="2" style="stroke:#181818;stroke-width:0.5;" width="4" x="360.5" y="712.9"/><rect fill="#F5FFFA" height="2" style="stroke:#181818;stroke-width:0.5;" width="4" x="360.5" y="716.9"/><text fill="#000000" font-family="sans-serif" font-size="14" lengthAdjust="spacing" textLength="17" x="328.5" y="739.4352">S3</text><text fill="#000000" font-family="sans-serif" font-size="14" lengthAdjust="spacing" textLength="57" x="300.5" y="755.9234">Gateway</text></g><!--entity Storage--><g id="elem_Storage"><path d="M417.5,724.65 C417.5,714.65 454,714.65 454,714.65 C454,714.65 490.5,714.65 490.5,724.65 L490.5,750.1383 C490.5,760.1383 454,760.1383 454,760.1383 C454,760.1383 417.5,760.1383 417.5,750.1383 L417.5,724.65 " fill="#008000" style="stroke:#181818;stroke-width:0.5;"/><path d="M417.5,724.65 C417.5,734.65 454,734.65 454,734.65 C454,734.65 490.5,734.65 490.5,724.65 " fill="none" style="stroke:#181818;stroke-width:0.5;"/><text fill="#FFFFFF" font-family="sans-serif" font-size="14" lengthAdjust="spacing" textLength="53" x="427.5" y="752.1852">Storage</text></g><!--entity Python--><g id="elem_Python"><rect fill="#F5FFFA" height="46.4883" rx="2.5" ry="2.5" style="stroke:#181818;stroke-width:0.5;" width="87" x="30.5" y="66"/><rect fill="#F5FFFA" height="10" style="stroke:#181818;stroke-width:0.5;" width="15" x="97.5" y="71"/><rect fill="#F5FFFA" height="2" style="stroke:#181818;stroke-width:0.5;" width="4" x="95.5" y="73"/><rect fill="#F5FFFA" height="2" style="stroke:#181818;stroke-width:0.5;" width="4" x="95.5" y="77"/><text fill="#000000" font-family="sans-serif" font-size="14" lengthAdjust="spacing" textLength="47" x="45.5" y="99.5352">Python</text></g><!--entity AS--><g id="elem_AS"><rect fill="#F5FFFA" height="46.4883" rx="2.5" ry="2.5" style="stroke:#181818;stroke-width:0.5;" width="149" x="201.5" y="66"/><rect fill="#F5FFFA" height="10" style="stroke:#181818;stroke-width:0.5;" width="15" x="330.5" y="71"/><rect fill="#F5FFFA" height="2" style="stroke:#181818;stroke-width:0.5;" width="4" x="328.5" y="73"/><rect fill="#F5FFFA" height="2" style="stroke:#181818;stroke-width:0.5;" width="4" x="328.5" y="77"/><text fill="#000000" font-family="sans-serif" font-size="14" lengthAdjust="spacing" textLength="109" x="216.5" y="99.5352">PyActiveStorage</text></g><!--link pip to reductionist--><g id="link_pip_reductionist"><path d="M224.37,379.32 C217.03,402.63 196.19,468.87 185.11,504.05 " fill="none" id="pip-reductionist" style="stroke:#181818;stroke-width:1.0;"/></g><!--link pip to r2--><g id="link_pip_r2"><path d="M228.8577,385.2898 C230.3577,395.7998 232.96,408.21 240,422.42 C255.51,453.72 277.4775,480.0005 296.2675,499.8705 " fill="none" id="pip-r2" style="stroke:#181818;stroke-width:1.0;"/><polygon fill="#181818" points="228.01,379.35,225.3217,388.8249,228.7164,384.2998,233.2415,387.6946,228.01,379.35" style="stroke:#181818;stroke-width:1.0;"/><polygon fill="#181818" points="300.39,504.23,297.1125,494.9425,296.9546,500.5971,291.2999,500.4391,300.39,504.23" style="stroke:#181818;stroke-width:1.0;"/></g><!--link pip to r3--><g id="link_pip_r3"><path d="M226.809,385.4396 C226.939,396.7396 228.82,410.66 240,422.42 C280.68,465.21 316.09,431.5 367,461.42 C386.04,472.61 399.9002,485.6766 412.5402,499.7466 " fill="none" id="pip-r3" style="stroke:#181818;stroke-width:1.0;"/><polygon fill="#181818" points="226.74,379.44,222.8438,388.4854,226.7975,384.4397,230.8433,388.3934,226.74,379.44" style="stroke:#181818;stroke-width:1.0;"/><polygon fill="#181818" points="416.55,504.21,413.511,494.8417,413.2085,500.4905,407.5598,500.1881,416.55,504.21" style="stroke:#181818;stroke-width:1.0;"/></g><!--link s3 to Storage--><g id="link_s3_Storage"><path d="M382.75,737.39 C394.25,737.39 405.76,737.39 417.26,737.39 " fill="none" id="s3-Storage" style="stroke:#181818;stroke-width:1.0;"/></g><!--link reductionist to bnote--><!--link Python to AS--><g id="link_Python_AS"><path d="M117.83,89.24 C142.2,89.24 173.19,89.24 201.26,89.24 " fill="none" id="Python-AS" style="stroke:#181818;stroke-width:1.0;"/><text fill="#000000" font-family="sans-serif" font-size="13" lengthAdjust="spacing" textLength="44" x="137.5" y="52.8084">with or</text><text fill="#000000" font-family="sans-serif" font-size="13" lengthAdjust="spacing" textLength="48" x="135.5" y="68.1189">without</text><text fill="#000000" font-family="sans-serif" font-size="13" lengthAdjust="spacing" textLength="34" x="142.5" y="83.4295">DASK</text></g><!--link AS to pip--><g id="link_AS_pip"><path d="M266.2279,118.2338 C257.8379,143.0438 246.76,178.77 240,215.49 C229.92,270.18 227.769,331.3114 227.269,354.5614 " fill="none" id="AS-pip" style="stroke:#181818;stroke-width:1.0;"/><polygon fill="#181818" points="268.15,112.55,261.4777,119.7943,266.5483,117.2865,269.0561,122.3571,268.15,112.55" style="stroke:#181818;stroke-width:1.0;"/><polygon fill="#181818" points="227.14,360.56,231.3326,351.6481,227.2475,355.5612,223.3344,351.4761,227.14,360.56" style="stroke:#181818;stroke-width:1.0;"/><text fill="#000000" font-family="sans-serif" font-size="13" lengthAdjust="spacing" textLength="112" x="261" y="174.0584">series of requests</text><text fill="#000000" font-family="sans-serif" font-size="13" lengthAdjust="spacing" textLength="122" x="258" y="189.3689">for reduced chunks</text><text fill="#000000" font-family="sans-serif" font-size="13" lengthAdjust="spacing" textLength="4" x="315" y="204.6795">&#160;</text></g><!--link User Application\n to External Cloud--><!--link reductionist to s3--><g id="link_reductionist_s3"><path d="M177.2929,557.2996 C177.6429,586.0996 182.93,629.17 213,654.9 C236.45,674.98 255.44,647.16 282,662.9 C298.54,672.71 308.2396,684.8355 316.9196,700.2055 " fill="none" id="reductionist-s3" style="stroke:#181818;stroke-width:1.0;"/><polygon fill="#181818" points="177.22,551.3,173.3297,560.3479,177.2808,556.2996,181.3291,560.2507,177.22,551.3" style="stroke:#181818;stroke-width:1.0;"/><polygon fill="#181818" points="319.87,705.43,318.9273,695.6264,317.4113,701.0763,311.9614,699.5603,319.87,705.43" style="stroke:#181818;stroke-width:1.0;"/><text fill="#000000" font-family="sans-serif" font-size="13" lengthAdjust="spacing" textLength="51" x="241" y="636.4684">get data</text><text fill="#000000" font-family="sans-serif" font-size="13" lengthAdjust="spacing" textLength="101" x="218" y="651.7789">chunk by chunk</text></g><!--link r2 to s3--><g id="link_r2_s3"><path d="M324.5169,557.2816 C326.4969,594.7116 329.8216,657.5985 332.0616,699.7485 " fill="none" id="r2-s3" style="stroke:#181818;stroke-width:1.0;"/><polygon fill="#181818" points="324.2,551.29,320.681,560.4887,324.4641,556.283,328.6698,560.0661,324.2,551.29" style="stroke:#181818;stroke-width:1.0;"/><polygon fill="#181818" points="332.38,705.74,335.8967,696.5404,332.1147,700.747,327.908,696.965,332.38,705.74" style="stroke:#181818;stroke-width:1.0;"/></g><!--link r3 to s3--><g id="link_r3_s3"><path d="M421.3763,556.6859 C403.1763,594.1159 372.0242,658.1943 351.5242,700.3443 " fill="none" id="r3-s3" style="stroke:#181818;stroke-width:1.0;"/><polygon fill="#181818" points="424,551.29,416.4671,557.6347,421.8136,555.7866,423.6617,561.133,424,551.29" style="stroke:#181818;stroke-width:1.0;"/><polygon fill="#181818" points="348.9,705.74,356.4335,699.396,351.0869,701.2436,349.2392,695.897,348.9,705.74" style="stroke:#181818;stroke-width:1.0;"/></g><!--SRC=[TLHDRzim3BthLn2-P0Dgj4smIr0CoDArQ8Uc1OnjXwO7sM9ieRRaIN8-CFI_ZvBjVCy7Go8VgIVoKVPTgfeRNi5KLxLMgDmtdhtdHZTAJ7Mf3Jn9vQO6USNi5dpB7K-vnMFilK5KPt1tcd84nEz2Ejn3tD7l9Cqnw1ONl2cTmxNZfSnLHJGXen-QFTIK6t6SAKMPup566u4cSPiIGMZAAXWRk8AeGrPmbQC5XIXGWDET1Kg-qOqZc8PSGqgdUESIZPCPBo-03G0WqrLWHaXm1IMN1ZCdjO9IAgIaQmS56hm8QBlYTO1rOHO8c9QQKki56FpJe7MNMT6eTq3XMNLXDJy9y_j94c1iKEB2UNP6veNRaM1iuMiDZvFawM46Vxjjz7rDPLIyX6cf6n6HWq5xcLOFiAokuIzPWZbyqbT-mJEAhfkqb1aylC2PBm9kePRrBdINrQ1e0YzfNN1_d1mx92vd0eV_WO_EmqTxSCybZW_EXgtZ9ew_zjbt-r5N3X8ESAKTmcim8CyA-FKKrbHXb4lgKAqjoGaUa-TPty4Eu1gZR7jm3wZvfjHS141ChCAYuCHTBMJU61wa4woV6YjLxajouUyfgUcrz_BoS_2_iG_60iMqerZnjQoQoYj3q-bUfIpbIgoaS0MDXLlHf0B3llcPRpvTK00BtTtQnknvDeRXUlW5xbFfBYsRXVtrrLLlUEkb5JseOoqTDYFossGqL_VSuOflWa1iso7HlHMGE6qu2TaRxGZYtW3-aeFsWl5h8OL0zUQZ3zgvzSHjBPYFyYD0Sqm37_sqQ61IrwJQKE2vYhowZuY-R5n18tF4_cKpeNEMs14Ax2T9GBK1H9R6S0mhIKNMPgxyWfw3kRgT93yy4qR-6z8L2MmC4N6H99lTlDkvWWMzMxrGmlYJCMBiBFEzsvuCyc5TWfhjQ0mvkb1hEgbzND9Dks1csAEO6MsNx1y0]--></g></svg>